<!DOCTYPE svg PUBLIC "-//W3C//DTD SVG 20010904//EN" "http://www.w3.org/TR/2001/REC-SVG-20010904/DTD/svg10.dtd">
<svg version="1.0" xmlns="http://www.w3.org/2000/svg" width="850px" height="850px" viewBox="0 0 8500 8500" preserveAspectRatio="xMidYMid meet">
<g id="layer1" fill="#101010" stroke="none">
 <path d="M2942 5539 c-18 -10 -36 -19 -40 -19 -4 0 -7 -3 -8 -7 0 -5 -13 -34 -28 -66 -21 -43 -29 -80 -33 -139 l-6 -80 -56 9 c-65 9 -332 7 -571 -5 -91 -5 -168 -6 -172 -3 -4 3 -11 43 -17 88 -14 112 -49 176 -111 207 -32 17 -102 15 -123 -3 -10 -7 -17 -10 -17 -5 0 4 -10 -2 -23 -14 -13 -12 -26 -20 -29 -16 -3 3 -9 0 -14 -7 -4 -8 -3 -10 4 -5 7 4 12 3 12 -3 0 -5 -4 -13 -10 -16 -34 -21 -90 -330 -90 -500 0 -119 -6 -143 -40 -150 -43 -9 -113 -77 -147 -142 -44 -82 -70 -174 -84 -294 -22 -195 2 -363 73 -502 62 -122 275 -359 443 -492 112 -89 333 -234 428 -282 234 -117 712 -291 969 -353 158 -37 344 -67 473 -75 55 -3 152 -10 215 -16 379 -31 520 -39 733 -39 218 0 238 -1 243 -17 30 -103 110 -173 196 -173 56 0 91 15 130 57 27 29 78 122 78 143 0 7 7 10 16 6 9 -3 70 -13 137 -21 126 -16 178 -25 259 -45 32 -8 142 -10 345 -7 307 4 314 5 398 48 17 9 42 19 56 22 14 4 40 20 57 37 25 24 41 30 74 30 41 0 44 -2 71 -50 41 -73 85 -93 193 -88 70 3 86 6 108 27 34 32 48 77 49 164 2 65 -1 78 -35 141 l-37 69 14 66 c8 36 27 118 43 181 60 231 66 287 66 630 1 360 -4 398 -80 632 -66 201 -125 346 -170 414 -55 84 -196 227 -273 278 -118 78 -358 185 -496 221 -127 33 -554 7 -690 -42 -113 -40 -110 -41 -124 9 -7 24 -19 53 -27 66 -8 12 -12 28 -8 35 4 7 3 9 -1 4 -5 -4 -24 7 -42 25 -18 17 -33 28 -33 23 0 -5 -12 2 -27 16 -14 13 -22 17 -18 9 6 -10 2 -9 -12 3 -15 13 -23 15 -28 7 -4 -6 -24 -10 -44 -9 -93 7 -161 -88 -169 -237 l-4 -81 -121 -7 c-66 -3 -146 -6 -179 -6 l-58 0 0 53 c-1 86 -41 183 -101 242 -28 27 -48 43 -43 35 6 -12 5 -13 -7 -3 -20 16 -125 23 -140 9 -9 -8 -10 -7 -4 4 5 8 -3 5 -17 -8 -13 -12 -27 -20 -30 -17 -2 3 -13 -4 -23 -15 -10 -11 -15 -20 -10 -20 4 0 1 -7 -6 -16 -15 -19 -14 -14 -32 -127 -8 -48 -16 -90 -20 -93 -3 -3 -61 -1 -129 5 -88 8 -179 8 -318 1 -208 -11 -410 -4 -422 14 -4 6 -8 27 -8 46 0 19 -12 60 -26 90 -58 125 -173 193 -252 149z m1248 -43 c0 -2 -8 -10 -17 -17 -16 -13 -17 -12 -4 4 13 16 21 21 21 13z m-1130 -58 c40 -40 80 -121 80 -166 0 -18 9 -50 20 -71 l19 -39 108 -8 c133 -10 199 -10 375 1 96 5 189 4 304 -5 202 -16 192 -22 223 134 12 59 26 117 31 127 6 10 28 24 49 30 34 10 45 9 78 -8 56 -29 84 -86 94 -192 9 -102 20 -115 105 -126 80 -10 391 5 403 19 4 6 13 57 19 112 7 66 18 116 31 143 21 40 22 41 74 41 43 0 59 -5 87 -29 41 -33 92 -142 71 -149 -26 -9 -214 -167 -268 -226 -66 -72 -173 -232 -207 -308 -42 -96 -104 -302 -122 -409 -14 -88 -16 -141 -11 -344 4 -132 10 -257 13 -277 14 -80 24 -32 24 110 0 157 22 421 41 487 23 83 111 338 133 389 61 137 179 289 313 401 198 167 370 214 729 200 150 -5 187 -10 304 -40 73 -19 158 -46 188 -60 200 -92 429 -312 507 -488 35 -80 122 -353 139 -439 25 -121 32 -479 12 -595 -9 -51 -19 -143 -22 -205 -3 -62 -9 -129 -14 -148 -5 -19 -22 -92 -39 -161 -16 -70 -34 -142 -39 -161 -11 -39 2 -71 48 -125 37 -42 53 -95 47 -156 -6 -70 -32 -90 -108 -85 -73 5 -102 25 -151 103 l-40 64 -51 -21 c-29 -11 -63 -23 -77 -26 -14 -2 -32 -10 -40 -17 -41 -34 -111 -63 -160 -69 -30 -3 -194 -6 -365 -7 -291 -1 -321 0 -490 26 -283 43 -248 45 -268 -17 -21 -68 -62 -131 -99 -152 -72 -43 -178 42 -178 142 l0 39 -137 6 c-75 4 -192 7 -260 7 -69 0 -177 4 -241 10 -139 11 -484 38 -597 46 -218 15 -532 75 -690 133 -44 16 -125 43 -180 61 -148 47 -435 165 -556 227 -280 144 -611 418 -767 635 -110 153 -135 235 -133 437 1 187 22 297 74 397 17 33 75 94 88 94 5 0 9 -57 10 -127 1 -144 7 -176 33 -181 35 -7 41 15 47 191 7 193 34 531 50 622 25 147 63 215 121 215 43 0 75 -38 82 -96 15 -127 26 -178 41 -193 14 -14 45 -15 248 -11 332 6 492 5 573 -4 l71 -9 21 35 c13 21 22 52 22 74 0 22 9 73 20 114 31 114 77 139 140 78z"/>
 <path d="M5720 4645 c-27 -43 -65 -47 -108 -10 -37 31 -44 31 -40 4 4 -29 45 -58 90 -65 32 -6 41 -2 68 24 18 18 30 41 30 56 0 36 -14 32 -40 -9z"/>
 <path d="M6526 4604 c-26 -32 -33 -35 -75 -32 -39 3 -48 7 -59 31 -21 44 -50 29 -38 -19 8 -30 58 -54 114 -54 29 0 46 8 75 34 36 33 50 77 25 75 -7 0 -26 -16 -42 -35z"/>
 <path d="M5137 3889 c-11 -6 -25 -25 -32 -42 -16 -38 -5 -67 35 -90 25 -15 32 -15 78 -2 56 17 65 34 48 94 -14 47 -81 68 -129 40z"/>
 <path d="M6747 3865 c-30 -21 -37 -32 -37 -58 1 -78 108 -131 146 -72 22 34 13 113 -17 138 -29 23 -48 22 -92 -8z"/>
 <path d="M5310 3731 c-8 -5 -73 -12 -144 -16 -118 -6 -166 -17 -166 -37 0 -20 56 -31 180 -36 128 -4 137 -3 163 18 29 23 35 48 15 68 -14 14 -27 15 -48 3z"/>
 <path d="M6570 3339 c0 -25 46 -91 77 -110 24 -15 46 -19 90 -17 53 3 59 6 80 37 28 42 29 77 3 91 -15 8 -24 6 -40 -10 -11 -11 -20 -25 -20 -31 0 -22 -96 -4 -134 24 -37 29 -56 34 -56 16z"/>
 <path d="M5850 2510 c-159 -20 -246 -51 -315 -111 -40 -36 -49 -67 -14 -48 13 6 45 9 76 7 48 -4 60 -10 96 -47 l42 -41 -2 -83 c-4 -128 13 -269 34 -284 28 -21 58 -15 95 21 64 63 173 62 265 -1 48 -33 63 -38 109 -37 67 0 89 19 110 93 20 68 14 138 -22 250 -21 64 -24 89 -17 114 14 49 49 48 156 -8 33 -17 63 -19 72 -5 11 18 -35 90 -75 116 -71 47 -165 65 -365 69 -99 2 -209 0 -245 -5z m380 -151 c33 -10 40 -16 40 -38 l0 -26 -132 4 c-137 3 -278 -11 -335 -35 -31 -12 -33 -12 -39 12 -10 37 1 51 53 68 105 34 322 42 413 15z"/>
 </g>
<g id="layer2" fill="#fefefe" stroke="none">
 <path d="M0 4250 l0 -4250 4250 0 4250 0 0 4250 0 4250 -4250 0 -4250 0 0 -4250z m3056 1290 c69 -23 163 -161 164 -240 0 -19 4 -40 8 -46 12 -18 214 -25 422 -14 139 7 230 7 318 -1 68 -6 126 -8 129 -5 4 3 12 45 20 93 18 113 17 108 32 127 7 9 10 16 6 16 -5 0 0 9 10 20 10 11 21 18 23 15 3 -3 17 5 30 17 14 13 22 16 17 8 -6 -11 -5 -12 4 -4 15 14 120 7 140 -9 12 -10 13 -9 7 3 -5 8 15 -8 43 -35 60 -59 100 -156 101 -242 l0 -53 58 0 c33 0 113 3 179 6 l121 7 4 81 c8 149 76 244 169 237 20 -1 40 3 44 9 5 8 13 6 28 -7 14 -12 18 -13 12 -3 -4 8 4 4 18 -9 15 -14 27 -21 27 -16 0 5 15 -6 33 -23 18 -18 37 -29 42 -25 4 5 5 3 1 -4 -4 -7 0 -23 8 -35 8 -13 20 -42 27 -66 14 -50 11 -49 124 -9 136 49 563 75 690 42 138 -36 378 -143 496 -221 77 -51 218 -194 273 -278 45 -68 104 -213 170 -414 76 -234 81 -272 80 -632 0 -343 -6 -399 -66 -630 -16 -63 -35 -145 -43 -181 l-14 -66 37 -69 c34 -63 37 -76 35 -141 -1 -87 -15 -132 -49 -164 -22 -21 -38 -24 -108 -27 -108 -5 -152 15 -193 88 -27 48 -30 50 -71 50 -33 0 -49 -6 -74 -30 -17 -17 -43 -33 -57 -37 -14 -3 -39 -13 -56 -22 -84 -43 -91 -44 -398 -48 -203 -3 -313 -1 -345 7 -81 20 -133 29 -259 45 -67 8 -128 18 -137 21 -9 4 -16 1 -16 -6 0 -21 -51 -114 -78 -143 -39 -42 -74 -57 -130 -57 -86 0 -166 70 -196 173 -5 16 -25 17 -243 17 -213 0 -354 8 -733 39 -63 6 -160 13 -215 16 -129 8 -315 38 -473 75 -257 62 -735 236 -969 353 -95 48 -316 193 -428 282 -168 133 -381 370 -443 492 -71 139 -95 307 -73 502 14 120 40 212 84 294 34 65 104 133 147 142 34 7 40 31 40 150 0 170 56 479 90 500 6 3 10 11 10 16 0 6 -5 7 -12 3 -7 -5 -8 -3 -4 5 5 7 11 10 14 7 3 -4 16 4 29 16 13 12 23 18 23 14 0 -5 7 -2 17 5 21 18 91 20 123 3 62 -31 97 -95 111 -207 6 -45 13 -85 17 -88 4 -3 81 -2 172 3 239 12 506 14 571 5 l56 -9 6 80 c4 59 12 96 33 139 15 32 28 61 28 66 1 4 4 7 8 7 4 0 22 9 40 19 33 18 57 19 114 1z m3292 -3048 c40 -11 91 -32 112 -46 40 -26 86 -98 75 -116 -9 -14 -39 -12 -72 5 -107 56 -142 57 -156 8 -7 -25 -4 -50 17 -114 36 -112 42 -182 22 -250 -21 -74 -43 -93 -110 -93 -46 -1 -61 4 -109 37 -92 63 -201 64 -265 1 -37 -36 -67 -42 -95 -21 -21 15 -38 156 -34 284 l2 83 -42 41 c-36 37 -48 43 -96 47 -31 2 -63 -1 -76 -7 -35 -19 -26 12 14 48 103 90 257 122 560 116 139 -3 197 -8 253 -23z"/>
 <path d="M4169 5483 c-13 -16 -12 -17 4 -4 16 13 21 21 13 21 -2 0 -10 -8 -17 -17z"/>
 <path d="M2961 5453 c-23 -21 -61 -147 -61 -207 0 -22 -9 -53 -22 -74 l-21 -35 -71 9 c-81 9 -241 10 -573 4 -203 -4 -234 -3 -248 11 -15 15 -26 66 -41 193 -7 58 -39 96 -82 96 -58 0 -96 -68 -121 -215 -16 -91 -43 -429 -50 -622 -6 -176 -12 -198 -47 -191 -26 5 -32 37 -33 181 -1 70 -5 127 -10 127 -13 0 -71 -61 -88 -94 -52 -100 -73 -210 -74 -397 -2 -202 23 -284 133 -437 156 -217 487 -491 767 -635 121 -62 408 -180 556 -227 55 -18 136 -45 180 -61 158 -58 472 -118 690 -133 113 -8 458 -35 597 -46 64 -6 172 -10 241 -10 68 0 185 -3 260 -7 l137 -6 0 -39 c0 -100 106 -185 178 -142 37 21 78 84 99 152 20 62 -15 60 268 17 169 -26 199 -27 490 -26 171 1 335 4 365 7 49 6 119 35 160 69 8 7 26 15 40 17 14 3 48 15 77 26 l51 21 40 -64 c49 -78 78 -98 151 -103 76 -5 102 15 108 85 6 61 -10 114 -47 156 -46 54 -59 86 -48 125 5 19 23 91 39 161 17 69 34 142 39 161 5 19 11 86 14 148 3 62 13 154 22 205 20 116 13 474 -12 595 -17 86 -104 359 -139 439 -78 176 -307 396 -507 488 -30 14 -115 41 -188 60 -117 30 -154 35 -304 40 -359 14 -531 -33 -729 -200 -134 -112 -252 -264 -313 -401 -22 -51 -110 -306 -133 -389 -19 -66 -41 -330 -41 -487 0 -142 -10 -190 -24 -110 -3 20 -9 145 -13 277 -5 203 -3 256 11 344 18 107 80 313 122 409 34 76 141 236 207 308 54 59 242 217 268 226 21 7 -30 116 -71 149 -28 24 -44 29 -87 29 -52 0 -53 -1 -74 -41 -13 -27 -24 -77 -31 -143 -6 -55 -15 -106 -19 -112 -12 -14 -323 -29 -403 -19 -85 11 -96 24 -105 126 -10 106 -38 163 -94 192 -33 17 -44 18 -78 8 -21 -6 -43 -20 -49 -30 -5 -10 -19 -68 -31 -127 -31 -156 -21 -150 -223 -134 -115 9 -208 10 -304 5 -176 -11 -242 -11 -375 -1 l-108 8 -19 39 c-11 21 -20 53 -20 71 0 73 -86 198 -136 198 -12 0 -31 -8 -43 -17z m2799 -799 c0 -15 -12 -38 -30 -56 -27 -26 -36 -30 -68 -24 -45 7 -86 36 -90 65 -4 27 3 27 40 -4 43 -37 81 -33 108 10 26 41 40 45 40 9z m820 -35 c0 -12 -17 -37 -37 -55 -29 -26 -46 -34 -75 -34 -56 0 -106 24 -114 54 -12 48 17 63 38 19 11 -24 20 -28 59 -31 42 -3 49 0 75 32 33 40 54 45 54 15z m-1348 -728 c26 -10 46 -60 40 -98 -3 -17 -15 -26 -54 -38 -46 -13 -53 -13 -78 2 -40 23 -51 52 -35 90 21 49 70 66 127 44z m1607 -18 c30 -25 39 -104 17 -138 -38 -59 -145 -6 -146 72 0 26 7 37 37 58 44 30 63 31 92 8z m-1481 -145 c20 -20 14 -45 -15 -68 -26 -21 -35 -22 -163 -18 -124 5 -180 16 -180 36 0 20 48 31 166 37 71 4 136 11 144 16 21 12 34 11 48 -3z m1268 -405 c38 -28 134 -46 134 -24 0 6 9 20 20 31 16 16 25 18 40 10 26 -14 25 -49 -3 -91 -21 -31 -27 -34 -80 -37 -71 -4 -112 18 -145 76 -38 68 -25 81 34 35z"/>
 <path d="M5945 2369 c-94 -11 -174 -35 -182 -55 -3 -8 -2 -25 1 -38 6 -24 8 -24 39 -12 57 24 198 38 335 35 l132 -4 0 26 c0 22 -7 28 -40 38 -57 17 -190 22 -285 10z"/>
 </g>

</svg>